<svg id="visual" viewBox="0 0 900 450" width="900" height="450" xmlns="http://www.w3.org/2000/svg" xmlns:xlink="http://www.w3.org/1999/xlink" version="1.1"><rect x="0" y="0" width="900" height="450" fill="#223843"></rect><path d="M0 186L21.5 174.3C43 162.7 86 139.3 128.8 131.5C171.7 123.7 214.3 131.3 257.2 138.7C300 146 343 153 385.8 150.5C428.7 148 471.3 136 514.2 129C557 122 600 120 642.8 119C685.7 118 728.3 118 771.2 127C814 136 857 154 878.5 163L900 172L900 0L878.5 0C857 0 814 0 771.2 0C728.3 0 685.7 0 642.8 0C600 0 557 0 514.2 0C471.3 0 428.7 0 385.8 0C343 0 300 0 257.2 0C214.3 0 171.7 0 128.8 0C86 0 43 0 21.5 0L0 0Z" fill="#223843"></path><path d="M0 121L21.5 121.3C43 121.7 86 122.3 128.8 119.5C171.7 116.7 214.3 110.3 257.2 106.8C300 103.3 343 102.7 385.8 103.7C428.7 104.7 471.3 107.3 514.2 112.3C557 117.3 600 124.7 642.8 122.8C685.7 121 728.3 110 771.2 105C814 100 857 101 878.5 101.5L900 102L900 0L878.5 0C857 0 814 0 771.2 0C728.3 0 685.7 0 642.8 0C600 0 557 0 514.2 0C471.3 0 428.7 0 385.8 0C343 0 300 0 257.2 0C214.3 0 171.7 0 128.8 0C86 0 43 0 21.5 0L0 0Z" fill="#52626c"></path><path d="M0 102L21.5 101.3C43 100.7 86 99.3 128.8 98.7C171.7 98 214.3 98 257.2 101.7C300 105.3 343 112.7 385.8 107.7C428.7 102.7 471.3 85.3 514.2 78.7C557 72 600 76 642.8 84.3C685.7 92.7 728.3 105.3 771.2 106.5C814 107.7 857 97.3 878.5 92.2L900 87L900 0L878.5 0C857 0 814 0 771.2 0C728.3 0 685.7 0 642.8 0C600 0 557 0 514.2 0C471.3 0 428.7 0 385.8 0C343 0 300 0 257.2 0C214.3 0 171.7 0 128.8 0C86 0 43 0 21.5 0L0 0Z" fill="#848f97"></path><path d="M0 66L21.5 66.5C43 67 86 68 128.8 70.2C171.7 72.3 214.3 75.7 257.2 72.5C300 69.3 343 59.7 385.8 56.8C428.7 54 471.3 58 514.2 63.7C557 69.3 600 76.7 642.8 75.7C685.7 74.7 728.3 65.3 771.2 59.3C814 53.3 857 50.7 878.5 49.3L900 48L900 0L878.5 0C857 0 814 0 771.2 0C728.3 0 685.7 0 642.8 0C600 0 557 0 514.2 0C471.3 0 428.7 0 385.8 0C343 0 300 0 257.2 0C214.3 0 171.7 0 128.8 0C86 0 43 0 21.5 0L0 0Z" fill="#b8bfc4"></path><path d="M0 46L21.5 46.3C43 46.7 86 47.3 128.8 48.3C171.7 49.3 214.3 50.7 257.2 51.8C300 53 343 54 385.8 50.7C428.7 47.3 471.3 39.7 514.2 36C557 32.3 600 32.7 642.8 35.8C685.7 39 728.3 45 771.2 43.7C814 42.3 857 33.7 878.5 29.3L900 25L900 0L878.5 0C857 0 814 0 771.2 0C728.3 0 685.7 0 642.8 0C600 0 557 0 514.2 0C471.3 0 428.7 0 385.8 0C343 0 300 0 257.2 0C214.3 0 171.7 0 128.8 0C86 0 43 0 21.5 0L0 0Z" fill="#eff1f3"></path></svg>