<svg id="visual" viewBox="0 0 900 200" width="900" height="200" xmlns="http://www.w3.org/2000/svg" xmlns:xlink="http://www.w3.org/1999/xlink" version="1.1"><rect x="0" y="0" width="900" height="200" fill="#d8b4a0"></rect><path d="M0 82L21.5 76.8C43 71.7 86 61.3 128.8 57.8C171.7 54.3 214.3 57.7 257.2 61C300 64.3 343 67.7 385.8 66.7C428.7 65.7 471.3 60.3 514.2 57.2C557 54 600 53 642.8 52.5C685.7 52 728.3 52 771.2 56C814 60 857 68 878.5 72L900 76L900 0L878.5 0C857 0 814 0 771.2 0C728.3 0 685.7 0 642.8 0C600 0 557 0 514.2 0C471.3 0 428.7 0 385.8 0C343 0 300 0 257.2 0C214.3 0 171.7 0 128.8 0C86 0 43 0 21.5 0L0 0Z" fill="#d8b4a0"></path><path d="M0 53L21.5 53.2C43 53.3 86 53.7 128.8 52.5C171.7 51.3 214.3 48.7 257.2 47.2C300 45.7 343 45.3 385.8 45.7C428.7 46 471.3 47 514.2 49.2C557 51.3 600 54.7 642.8 53.8C685.7 53 728.3 48 771.2 45.8C814 43.7 857 44.3 878.5 44.7L900 45L900 0L878.5 0C857 0 814 0 771.2 0C728.3 0 685.7 0 642.8 0C600 0 557 0 514.2 0C471.3 0 428.7 0 385.8 0C343 0 300 0 257.2 0C214.3 0 171.7 0 128.8 0C86 0 43 0 21.5 0L0 0Z" fill="#d8a68e"></path><path d="M0 45L21.5 44.7C43 44.3 86 43.7 128.8 43.3C171.7 43 214.3 43 257.2 44.7C300 46.3 343 49.7 385.8 47.5C428.7 45.3 471.3 37.7 514.2 34.7C557 31.7 600 33.3 642.8 37C685.7 40.7 728.3 46.3 771.2 46.8C814 47.3 857 42.7 878.5 40.3L900 38L900 0L878.5 0C857 0 814 0 771.2 0C728.3 0 685.7 0 642.8 0C600 0 557 0 514.2 0C471.3 0 428.7 0 385.8 0C343 0 300 0 257.2 0C214.3 0 171.7 0 128.8 0C86 0 43 0 21.5 0L0 0Z" fill="#d8987d"></path><path d="M0 29L21.5 29.2C43 29.3 86 29.7 128.8 30.5C171.7 31.3 214.3 32.7 257.2 31.3C300 30 343 26 385.8 24.8C428.7 23.7 471.3 25.3 514.2 27.8C557 30.3 600 33.7 642.8 33.2C685.7 32.7 728.3 28.3 771.2 25.7C814 23 857 22 878.5 21.5L900 21L900 0L878.5 0C857 0 814 0 771.2 0C728.3 0 685.7 0 642.8 0C600 0 557 0 514.2 0C471.3 0 428.7 0 385.8 0C343 0 300 0 257.2 0C214.3 0 171.7 0 128.8 0C86 0 43 0 21.5 0L0 0Z" fill="#d8896e"></path><path d="M0 20L21.5 20.2C43 20.3 86 20.7 128.8 21.2C171.7 21.7 214.3 22.3 257.2 22.8C300 23.3 343 23.7 385.8 22.2C428.7 20.7 471.3 17.3 514.2 15.7C557 14 600 14 642.8 15.3C685.7 16.7 728.3 19.3 771.2 18.7C814 18 857 14 878.5 12L900 10L900 0L878.5 0C857 0 814 0 771.2 0C728.3 0 685.7 0 642.8 0C600 0 557 0 514.2 0C471.3 0 428.7 0 385.8 0C343 0 300 0 257.2 0C214.3 0 171.7 0 128.8 0C86 0 43 0 21.5 0L0 0Z" fill="#d77a61"></path></svg>